<?xml version="1.0" encoding="UTF-8" standalone="no"?>
<!-- Created with Inkscape (http://www.inkscape.org/) -->

<svg
   xmlns:dc="http://purl.org/dc/elements/1.1/"
   xmlns:cc="http://creativecommons.org/ns#"
   xmlns:rdf="http://www.w3.org/1999/02/22-rdf-syntax-ns#"
   xmlns:svg="http://www.w3.org/2000/svg"
   xmlns="http://www.w3.org/2000/svg"
   xmlns:sodipodi="http://sodipodi.sourceforge.net/DTD/sodipodi-0.dtd"
   xmlns:inkscape="http://www.inkscape.org/namespaces/inkscape"
   id="svg2985"
   version="1.1"
   inkscape:version="0.48.5 r10040"
   width="1000"
   height="648.80664"
   xml:space="preserve"
   sodipodi:docname="Umbro-2013-Brand-Guidelines1.pdf"><metadata
     id="metadata2991"><rdf:RDF><cc:Work
         rdf:about=""><dc:format>image/svg+xml</dc:format><dc:type
           rdf:resource="http://purl.org/dc/dcmitype/StillImage" /><dc:title></dc:title></cc:Work></rdf:RDF></metadata><defs
     id="defs2989"><clipPath
       clipPathUnits="userSpaceOnUse"
       id="clipPath3001"><path
         d="m 0,841.89 1190.55,0 L 1190.55,0 0,0 0,841.89 z"
         id="path3003"
         inkscape:connector-curvature="0" /></clipPath><clipPath
       clipPathUnits="userSpaceOnUse"
       id="clipPath3055"><path
         d="m 611.575,318.443 350.277,0 0,227.502 -350.277,0 0,-227.502 z"
         id="path3057"
         inkscape:connector-curvature="0" /></clipPath><clipPath
       clipPathUnits="userSpaceOnUse"
       id="clipPath3087"><path
         d="m 0,0 1190.551,0 0,841.89 L 0,841.89 0,0 z"
         id="path3089"
         inkscape:connector-curvature="0" /></clipPath></defs><sodipodi:namedview
     pagecolor="#ffffff"
     bordercolor="#666666"
     borderopacity="1"
     objecttolerance="10"
     gridtolerance="10"
     guidetolerance="10"
     inkscape:pageopacity="0"
     inkscape:pageshadow="2"
     inkscape:window-width="1059"
     inkscape:window-height="1026"
     id="namedview2987"
     showgrid="false"
     fit-margin-left="0.5"
     fit-margin-bottom="0.5"
     fit-margin-top="0.5"
     fit-margin-right="0.5"
     inkscape:zoom="0.25618645"
     inkscape:cx="426.63546"
     inkscape:cy="-57.367027"
     inkscape:window-x="853"
     inkscape:window-y="-10"
     inkscape:window-maximized="0"
     inkscape:current-layer="g2993" /><g
     id="g2993"
     inkscape:groupmode="layer"
     inkscape:label="Umbro-2013-Brand-Guidelines1"
     transform="matrix(1.25,0,0,-1.25,-763.96873,1046.3604)"><g
       id="g3051"
       transform="matrix(2.2816228,0,0,2.2816228,-783.80848,-408.12382)"><g
         id="g3053"
         clip-path="url(#clipPath3055)"><g
           id="g3059"
           transform="translate(782.0248,524.5779)"><path
             d="m 0,0 -131.504,-54.975 c -1.855,-0.782 -1.855,-2.035 0,-2.814 L 0,-112.798 c 2.578,-1.06 6.791,-1.06 9.366,0 l 131.507,55.009 c 1.863,0.779 1.863,2.032 0,2.814 L 9.366,0 C 6.791,1.08 2.578,1.08 0,0 m 174.766,-48.538 c 3.005,-1.333 5.062,-4.339 5.062,-7.851 0,-3.509 -2.098,-6.511 -5.115,-7.847 l -163.7,-68.461 c -3.475,-1.445 -9.17,-1.445 -12.648,0 l -163.711,68.461 c -3.024,1.336 -5.104,4.338 -5.104,7.847 0,3.512 2.08,6.538 5.104,7.871 L -1.635,19.915 c 3.478,1.452 9.173,1.452 12.648,0 l 163.753,-68.453 z m -88.75,-4.09 c 1.441,-0.642 2.431,-2.07 2.431,-3.761 0,-1.677 -1.002,-3.101 -2.431,-3.742 L 7.734,-92.872 c -1.678,-0.711 -4.4,-0.711 -6.076,0 l -78.287,32.741 c -1.427,0.641 -2.452,2.065 -2.452,3.742 0,1.691 1.025,3.119 2.452,3.767 l 78.287,32.736 c 1.676,0.691 4.398,0.691 6.076,0 L 86.016,-52.628 z M 3.313,-72.983 c 0.745,-0.296 1.999,-0.296 2.743,0 l 38.697,16.19 c 0.539,0.229 0.539,0.601 0,0.834 L 6.056,-39.798 c -0.744,0.304 -1.998,0.304 -2.743,0 l -38.676,-16.161 c -0.548,-0.233 -0.548,-0.605 0,-0.834 l 38.676,-16.19 z"
             style="fill:#000000;fill-opacity:1;fill-rule:nonzero;stroke:none"
             id="path3061"
             inkscape:connector-curvature="0" /></g><g
           id="g3063"
           transform="translate(852.9994,356.3426)"><path
             d="m 0,0 -0.176,0 0,8.338 -14.221,0 0,-45.213 15.622,0 0,19.1 c 0,8.857 4.078,14.136 11.361,14.136 1.816,0 3.521,0 5.25,-0.495 l 0,13.131 C 16.471,9.202 14.889,9.39 13.354,9.39 6.615,9.39 2.701,5.736 0,0"
             style="fill:#000000;fill-opacity:1;fill-rule:nonzero;stroke:none"
             id="path3065"
             inkscape:connector-curvature="0" /></g><g
           id="g3067"
           transform="translate(815.597,365.7586)"><path
             d="m 0,0 c -6.24,0 -11.531,-1.822 -15.516,-6.844 l -0.175,0 0,21.786 -15.707,0 0,-61.18 14.387,0 0,8.063 0.176,0 c 1.999,-5.051 8.345,-9.115 15.552,-9.115 13.436,0 20.643,11.107 20.643,24.467 C 19.36,-11.874 12.493,0 0,0 m -6.182,-35.969 c -5.443,0 -9.978,5.165 -9.978,12.071 0,7.082 3.984,12.34 9.978,12.34 6.358,0 9.909,-5.434 9.909,-11.711 0,-7.535 -3.739,-12.7 -9.909,-12.7"
             style="fill:#000000;fill-opacity:1;fill-rule:nonzero;stroke:none"
             id="path3069"
             inkscape:connector-curvature="0" /></g><g
           id="g3071"
           transform="translate(762.7494,365.7322)"><path
             d="M 0,0 C -6.407,0 -12.402,-2.604 -16.046,-8.689 -18.469,-2.78 -23.77,0 -30.197,0 -37.299,0 -43.551,-2.854 -46.681,-9.39 l -0.155,0 0,8.338 -14.232,0 0,-45.213 15.621,0 0,19.1 c 0,9.716 3.281,14.137 8.842,14.137 4.418,0 6.252,-3.824 6.252,-8.928 l 0,-24.309 15.622,0 0,19.1 c 0,9.716 3.302,14.137 8.839,14.137 4.433,0 6.252,-3.824 6.252,-8.928 l 0,-24.309 15.625,0 0,26.648 C 15.985,-7.38 13.023,0 0,0"
             style="fill:#000000;fill-opacity:1;fill-rule:nonzero;stroke:none"
             id="path3073"
             inkscape:connector-curvature="0" /></g><g
           id="g3075"
           transform="translate(898.0414,365.7322)"><path
             d="m 0,0 c -14.936,0 -26.304,-8.689 -26.304,-23.696 0,-14.939 11.368,-23.594 26.304,-23.594 14.907,0 26.274,8.655 26.274,23.594 C 26.274,-8.689 14.907,0 0,0 m -11.098,-23.822 c 0,7.879 4.424,13.6 10.934,13.6 6.944,0 10.858,-5.926 10.858,-12.874 0,-8.376 -4.119,-14.007 -10.858,-14.007 -5.912,0 -10.934,5.643 -10.934,13.281"
             style="fill:#000000;fill-opacity:1;fill-rule:nonzero;stroke:none"
             id="path3077"
             inkscape:connector-curvature="0" /></g><g
           id="g3079"
           transform="translate(649.0907,364.6805)"><path
             d="m 0,0 0,-25.586 c 0,-14.49 10.196,-20.652 23.397,-20.652 13.179,0 23.386,6.162 23.386,20.652 l 0,25.586 -15.601,0 0,-24.323 c 0,-5.57 -1.377,-10.568 -7.785,-10.568 -6.439,0 -7.816,4.998 -7.816,10.568 L 15.581,0 0,0 z"
             style="fill:#000000;fill-opacity:1;fill-rule:nonzero;stroke:none"
             id="path3081"
             inkscape:connector-curvature="0" /></g></g></g></g></svg>